<?xml version="1.0" standalone="no"?>
<!DOCTYPE svg PUBLIC "-//W3C//DTD SVG 20010904//EN"
 "http://www.w3.org/TR/2001/REC-SVG-20010904/DTD/svg10.dtd">
<svg version="1.0" xmlns="http://www.w3.org/2000/svg"
 width="550.000000pt" height="550.000000pt" viewBox="0 0 550.000000 550.000000"
 preserveAspectRatio="xMidYMid meet">

<g transform="translate(0.000000,550.000000) scale(0.100000,-0.100000)"
fill="#000000" stroke="none">
<path d="M1345 5333 c-98 -14 -259 -58 -336 -93 -49 -22 -92 -40 -95 -40 -17
0 -139 -82 -221 -147 -107 -86 -204 -188 -276 -288 -70 -98 -164 -298 -192
-408 -54 -213 -55 -237 -56 -1622 0 -842 3 -1304 10 -1350 54 -359 280 -728
576 -941 141 -100 367 -190 567 -223 125 -22 142 -22 1455 -21 1274 2 1332 2
1428 21 283 56 483 158 699 360 190 177 326 405 391 653 51 198 50 170 50
1576 0 1446 4 1343 -61 1566 -30 104 -113 281 -183 387 -143 219 -438 435
-708 520 -187 59 -120 57 -1632 56 -762 -1 -1399 -4 -1416 -6z m367 -130 c-62
-2 -161 -2 -220 0 -59 1 -8 3 113 3 121 0 169 -2 107 -3z m911 0 c-144 -2
-382 -2 -530 0 -147 1 -29 2 262 2 292 0 412 -1 268 -2z m510 0 c-40 -2 -106
-2 -145 0 -40 1 -8 3 72 3 80 0 112 -2 73 -3z m490 0 c-57 -2 -149 -2 -205 0
-57 1 -11 3 102 3 113 0 159 -2 103 -3z m375 0 c-49 -2 -127 -2 -175 0 -49 1
-9 3 87 3 96 0 136 -2 88 -3z m-2655 -10 c-7 -2 -19 -2 -25 0 -7 3 -2 5 12 5
14 0 19 -2 13 -5z m2859 -4 c62 -12 181 -49 176 -55 -2 -2 -33 6 -68 17 -36
11 -99 26 -140 34 -41 7 -63 14 -48 14 15 1 51 -4 80 -10z m-2915 -5 c-3 -3
-12 -4 -19 -1 -8 3 -5 6 6 6 11 1 17 -2 13 -5z m-162 -48 c-33 -13 -69 -27
-80 -31 -11 -5 -17 -5 -13 -1 10 11 121 56 138 55 8 0 -12 -10 -45 -23z m3375
-51 c14 -8 21 -14 15 -14 -5 0 -21 6 -35 14 -14 8 -20 14 -15 14 6 0 21 -6 35
-14z m-2396 -203 l29 -17 1 -388 1 -387 -212 0 -213 0 0 23 c-1 12 -5 181 -10
376 -5 213 -5 363 1 377 5 14 18 28 28 32 11 4 93 5 183 4 129 -3 169 -7 192
-20z m2073 -422 c56 -31 96 -94 90 -143 -6 -47 -26 -78 -74 -114 l-37 -28
-870 1 c-689 0 -876 3 -895 13 -18 10 -25 10 -31 1 -4 -6 -18 -10 -31 -8 -24
3 -24 4 -27 146 l-3 142 33 1 c219 10 727 15 1210 13 594 -2 596 -2 635 -24z
m-2685 -37 c-1 -32 2 -53 8 -53 8 0 15 43 8 53 -1 1 4 13 11 26 23 41 31 4 31
-141 l0 -137 -45 14 c-74 22 -75 23 -75 154 0 123 7 144 45 139 18 -3 20 -9
17 -55z m576 -524 c59 2 72 -12 72 -79 l0 -59 -207 5 c-192 6 -209 8 -225 26
-18 20 -24 72 -11 104 6 16 20 16 172 9 91 -4 181 -7 199 -6z m-610 -311 c38
-11 47 -37 38 -106 -8 -63 -8 -588 0 -641 7 -41 6 -41 -24 -41 -41 0 -152 42
-216 82 -71 43 -239 190 -273 238 -15 22 -33 40 -39 40 -14 0 -135 127 -207
217 -32 39 -64 73 -71 76 -13 5 -36 78 -36 115 0 40 28 42 420 36 206 -3 390
-10 408 -16z m2267 0 l26 -23 0 -445 c-1 -245 -1 -450 -1 -457 0 -6 -29 -32
-64 -57 -126 -90 -199 -199 -246 -370 -25 -90 -25 -172 0 -264 40 -146 122
-275 246 -391 135 -126 272 -207 453 -266 46 -16 97 -40 112 -54 l28 -26 3
-162 c1 -113 -2 -165 -10 -175 -10 -12 -80 -16 -398 -21 -220 -3 -396 -2 -409
3 -19 7 -25 19 -30 57 -21 158 -52 232 -144 340 -78 92 -187 164 -301 201 -76
24 -100 27 -225 26 -126 0 -148 -3 -221 -27 -98 -33 -157 -70 -237 -145 -109
-104 -161 -202 -187 -355 -7 -37 -19 -74 -27 -82 -16 -17 -39 -17 -523 -17
-281 0 -285 0 -302 22 -16 19 -18 44 -18 182 0 88 4 168 10 178 11 20 83 50
170 70 30 7 87 27 125 45 39 18 81 37 95 44 14 6 45 27 70 47 102 82 135 110
155 130 52 55 185 232 185 247 0 5 16 45 36 90 62 140 59 294 -9 429 -46 92
-141 183 -252 240 -143 74 -129 19 -136 532 -5 291 -4 445 3 453 12 15 146 17
1260 21 l737 2 26 -22z m1122 0 c19 -15 15 -97 -6 -143 -21 -47 -168 -190
-267 -260 -125 -88 -257 -198 -387 -322 -102 -98 -133 -123 -156 -123 -16 0
-33 6 -39 13 -7 8 -11 151 -12 412 -2 478 -4 432 18 439 34 9 837 -5 849 -16z"/>
<path d="M1178 3063 c7 -3 16 -2 19 1 4 3 -2 6 -13 5 -11 0 -14 -3 -6 -6z"/>
<path d="M2721 2779 c-35 -35 -40 -73 -16 -119 19 -36 43 -50 88 -50 27 0 42
8 66 35 35 40 38 62 16 105 -35 67 -104 80 -154 29z"/>
<path d="M2727 2192 c-39 -41 -38 -103 2 -143 38 -38 74 -38 112 0 33 34 38
75 14 121 -29 57 -86 66 -128 22z"/>
<path d="M2156 1814 c-3 -26 -4 -49 -2 -52 3 -2 8 17 11 43 4 25 5 48 3 51 -3
2 -8 -17 -12 -42z"/>
<path d="M3468 1641 c31 -53 149 -178 200 -212 40 -26 30 -12 -18 25 -23 17
-163 167 -183 196 -14 19 -14 17 1 -9z"/>
<path d="M1954 1498 l-29 -33 33 29 c30 28 37 36 29 36 -2 0 -16 -15 -33 -32z"/>
<path d="M1899 1453 c-13 -16 -12 -17 4 -4 16 13 21 21 13 21 -2 0 -10 -8 -17
-17z"/>
<path d="M3735 1385 c22 -18 86 -53 70 -38 -5 6 -28 20 -50 32 -22 13 -31 15
-20 6z"/>
<path d="M2026 1308 c3 -5 42 -7 87 -7 94 1 85 7 -20 11 -39 2 -69 0 -67 -4z"/>
<path d="M1813 1293 c9 -2 25 -2 35 0 9 3 1 5 -18 5 -19 0 -27 -2 -17 -5z"/>
<path d="M1286 1182 c-2 -4 -1 -14 5 -22 5 -8 9 -29 9 -47 0 -34 14 -51 26
-32 4 7 3 9 -3 6 -14 -9 -12 86 2 95 5 4 0 8 -12 8 -12 0 -24 -4 -27 -8z"/>
<path d="M1373 1176 c2 -6 10 -11 18 -12 49 -3 51 -4 45 -21 -5 -15 -3 -14 10
2 8 11 20 19 25 18 5 -2 9 3 9 10 0 9 -17 13 -55 14 -37 0 -55 -3 -52 -11z"/>
<path d="M1490 1173 c0 -9 6 -13 14 -10 8 3 16 -2 19 -14 6 -22 37 -26 37 -5
0 8 4 17 10 21 5 3 5 -7 -2 -25 -8 -24 -7 -34 2 -43 10 -9 12 -8 7 5 -4 12 -2
15 9 11 9 -3 14 0 12 7 -2 7 3 15 10 17 12 4 12 1 1 -18 -7 -13 -12 -28 -11
-32 1 -5 -10 -7 -25 -5 -21 2 -27 8 -25 22 3 16 1 18 -11 8 -7 -6 -16 -9 -19
-6 -3 2 -8 -2 -11 -10 -4 -10 -1 -13 7 -10 7 3 16 -2 20 -11 3 -9 10 -13 16
-10 5 3 15 3 22 -1 7 -5 5 -11 -7 -21 -11 -7 -14 -13 -9 -13 6 0 14 3 18 8 4
4 12 8 17 8 5 1 14 2 19 3 6 0 8 12 6 24 -2 13 0 30 5 38 6 10 9 8 10 -11 1
-14 2 -32 3 -40 2 -22 57 -20 81 3 17 15 17 17 3 12 -10 -4 -18 -3 -18 3 0 6
-8 12 -17 14 -15 3 -14 5 4 10 14 4 22 2 20 -6 -1 -6 5 -10 14 -8 9 1 19 -5
23 -13 3 -9 2 -13 -4 -10 -6 3 -10 2 -10 -4 0 -19 19 -21 30 -4 11 17 11 17 6
1 -3 -12 0 -18 9 -18 8 0 12 6 9 14 -6 15 7 15 38 1 10 -4 15 -11 12 -17 -3
-5 -12 -1 -20 9 -14 17 -14 17 -12 -6 2 -18 -2 -25 -20 -27 -13 -2 -21 0 -17
5 3 5 1 12 -4 15 -5 3 -11 -5 -13 -17 -3 -17 0 -23 14 -24 10 -1 18 4 18 10 0
8 3 8 9 -1 7 -11 9 -11 14 2 7 18 33 22 39 6 2 -6 9 0 17 12 13 22 13 22 -4 8
-17 -14 -18 -13 -12 2 3 10 -1 24 -10 34 -16 16 -16 16 6 9 20 -6 22 -5 12 13
-9 17 -7 19 17 19 15 0 21 -2 15 -4 -26 -9 -12 -20 22 -17 19 1 35 -2 35 -7 0
-5 7 -9 15 -9 8 0 15 6 15 13 0 8 4 7 11 -3 8 -12 9 -9 5 10 -3 14 -3 19 0 13
9 -19 27 -15 20 4 -5 11 2 24 19 39 16 14 22 25 15 29 -5 3 -118 8 -250 9
-251 3 -248 3 -241 -37 1 -5 -3 -6 -8 -3 -5 3 -7 14 -4 25 4 15 -1 19 -21 19
-16 0 -26 -6 -26 -15z m381 -12 c7 11 9 10 9 -4 0 -20 -22 -19 -26 1 -2 9 -1
9 3 1 4 -8 8 -7 14 2z m89 -7 c0 -8 -4 -12 -10 -9 -5 3 -10 2 -10 -4 0 -5 5
-13 10 -16 6 -3 10 -1 10 5 0 7 7 9 18 5 14 -5 15 -4 5 6 -7 7 -13 18 -13 23
0 6 5 5 11 -1 6 -6 19 -9 28 -5 10 3 4 -8 -14 -30 -33 -39 -80 -48 -90 -17 -3
10 -15 15 -28 14 -13 -1 -15 -1 -4 2 10 3 20 10 23 18 3 7 13 11 24 8 10 -3
21 0 24 6 10 15 16 14 16 -5z m-195 -13 c3 -5 2 -12 -3 -15 -5 -3 -9 1 -9 9 0
17 3 19 12 6z m60 -32 c-9 -17 -19 -28 -22 -25 -6 6 23 56 32 56 3 0 -2 -14
-10 -31z m-155 11 c8 -5 11 -10 5 -10 -5 0 -17 5 -25 10 -8 5 -10 10 -5 10 6
0 17 -5 25 -10z m-16 -26 c3 -8 2 -12 -4 -9 -6 3 -10 10 -10 16 0 14 7 11 14
-7z m36 -31 c0 -14 -2 -15 -9 -4 -6 9 -11 10 -15 2 -4 -6 -13 -11 -19 -11 -13
1 22 30 35 30 4 0 8 -8 8 -17z m-90 -3 c0 -5 -2 -10 -4 -10 -3 0 -8 5 -11 10
-3 6 -1 10 4 10 6 0 11 -4 11 -10z"/>
<path d="M1912 1126 c7 -8 15 -12 17 -11 5 6 -10 25 -20 25 -5 0 -4 -6 3 -14z"/>
<path d="M2065 1178 c11 -6 20 -10 20 -8 0 2 10 -2 22 -8 18 -10 20 -9 16 6
-3 13 -15 19 -41 20 -33 2 -35 1 -17 -10z"/>
<path d="M3723 1182 c-167 -1 -303 -5 -303 -8 0 -14 31 -35 42 -28 8 5 9 2 5
-9 -3 -10 -2 -17 2 -17 5 0 12 7 15 16 3 9 13 14 21 10 8 -3 19 3 24 12 8 14
9 12 7 -9 -1 -15 -10 -34 -19 -43 -21 -22 -30 -20 -17 3 12 24 13 34 1 27 -19
-12 -18 -45 1 -63 15 -13 19 -14 16 -3 -2 8 2 14 9 13 7 -2 10 3 7 11 -4 10 1
14 13 12 10 -2 19 -11 21 -22 2 -14 1 -16 -6 -6 -8 11 -10 11 -14 0 -4 -9 2
-14 17 -16 18 -1 22 2 18 18 -3 11 0 20 6 20 6 0 11 -11 11 -24 0 -26 20 -39
45 -30 8 4 15 1 15 -6 0 -6 -4 -8 -10 -5 -13 8 -13 2 4 -30 9 -17 16 -22 19
-13 2 7 8 10 12 6 4 -4 2 -14 -5 -23 -7 -8 -10 -15 -6 -15 11 0 46 40 46 52 0
9 -3 9 -11 1 -12 -12 -39 -7 -39 6 0 11 61 6 68 -6 4 -5 21 -9 37 -9 23 0 33
6 41 25 7 17 13 21 18 13 4 -7 2 -12 -3 -12 -6 0 -11 -11 -11 -25 0 -17 -9
-29 -29 -39 -33 -18 -43 -37 -29 -57 8 -11 9 -10 4 4 -6 20 5 22 22 5 8 -8 12
-9 12 -1 0 14 23 11 44 -6 14 -12 16 -12 10 3 -3 9 -10 16 -16 16 -5 0 -6 5
-3 10 3 6 1 10 -6 10 -9 0 -9 3 0 14 7 8 11 23 9 32 -2 12 4 19 17 21 l20 3
-20 -9 c-11 -5 -14 -10 -7 -10 9 -1 10 -6 2 -20 -14 -27 -13 -34 6 -27 12 5
14 1 10 -17 -3 -12 -3 -16 0 -9 3 6 10 12 15 12 6 0 7 -6 4 -12 -4 -7 1 -4 9
6 14 17 16 18 16 3 0 -21 7 -21 25 -3 19 18 11 24 -26 20 -16 -2 -28 0 -24 5
3 5 -1 11 -7 14 -10 3 -10 8 1 18 12 12 13 12 6 -1 -6 -12 -5 -13 6 -2 19 17
29 15 22 -5 -5 -15 -3 -14 10 2 8 11 12 22 8 25 -4 3 -11 14 -15 24 -6 19 -6
19 12 3 14 -13 21 -14 30 -5 9 9 12 8 12 -5 0 -9 -5 -17 -12 -17 -6 0 -8 -3
-4 -7 8 -8 55 46 56 65 0 23 40 -7 41 -31 1 -21 1 -21 8 2 3 13 15 28 26 32
11 4 15 8 8 8 -7 1 -10 11 -7 27 4 24 3 25 -11 10 -9 -9 -22 -16 -28 -16 -7 0
-6 -4 3 -10 8 -5 11 -12 7 -17 -5 -4 -12 -2 -16 6 -5 7 -12 11 -17 9 -5 -1 -9
5 -10 15 -1 12 0 13 3 2 4 -13 7 -13 29 1 13 9 21 21 17 27 -4 6 2 8 16 4 15
-4 29 1 42 14 13 13 19 15 19 6 0 -8 -10 -19 -22 -25 -13 -6 -17 -11 -10 -11
7 -1 10 -5 7 -11 -11 -17 3 -11 24 11 11 12 18 26 17 33 -2 6 -1 7 2 3 2 -4
11 -2 20 5 10 8 13 9 9 1 -4 -6 -2 -14 3 -16 6 -3 5 -4 -2 -3 -15 3 -53 -42
-44 -52 6 -5 19 8 28 29 2 4 14 10 27 14 18 5 22 4 16 -5 -5 -9 -4 -11 4 -6 9
6 9 11 0 22 -14 17 -5 18 22 4 16 -9 19 -7 19 9 0 18 -8 20 -117 23 -65 2
-254 2 -420 0z m283 -44 c-9 -12 -16 -19 -16 -15 0 11 24 47 28 42 2 -2 -3
-14 -12 -27z m-38 9 c8 -10 6 -13 -7 -13 -11 0 -17 6 -14 13 3 7 6 13 8 13 1
0 7 -6 13 -13z m-320 -14 c5 -16 -8 -16 -42 -3 -23 8 -26 7 -26 -11 0 -11 -4
-18 -10 -14 -5 3 -7 12 -3 20 4 11 1 13 -13 8 -10 -4 -15 -2 -11 4 9 14 99 11
105 -4z m53 -10 c8 -9 9 -14 3 -10 -25 15 -23 -25 1 -47 24 -22 24 -24 6 -29
-13 -3 -30 6 -50 25 l-30 30 26 24 c31 29 27 28 44 7z m346 11 c-3 -3 -12 -4
-19 -1 -8 3 -5 6 6 6 11 1 17 -2 13 -5z m-290 -75 c-8 -12 -13 -15 -16 -7 -2
7 1 14 7 16 9 3 9 10 1 25 -10 21 -9 21 5 3 12 -14 12 -22 3 -37z m218 42 c-3
-5 -1 -12 5 -16 5 -3 10 2 10 12 0 14 2 15 9 4 6 -9 5 -21 -2 -32 -10 -16 -12
-16 -22 4 -11 21 -10 37 1 37 3 0 3 -4 -1 -9z m-44 -10 c7 11 11 10 23 -6 9
-11 16 -24 16 -29 0 -6 -6 -1 -14 10 -16 21 -34 13 -20 -9 5 -7 1 -4 -8 6 -10
11 -18 24 -17 31 0 6 3 5 6 -3 5 -11 7 -11 14 0z m-296 -21 c3 -5 -1 -10 -9
-10 -9 0 -16 5 -16 10 0 6 4 10 9 10 6 0 13 -4 16 -10z m240 -10 c-5 -14 -2
-20 9 -20 16 0 21 -12 10 -23 -3 -3 -17 6 -30 20 -28 30 -29 34 -9 27 8 -4 15
-1 15 5 0 6 3 11 6 11 3 0 2 -9 -1 -20z m35 6 c0 -3 -4 -8 -10 -11 -5 -3 -10
-1 -10 4 0 6 5 11 10 11 6 0 10 -2 10 -4z m-137 -33 c-6 -16 -5 -17 13 -3 18
14 18 14 5 -3 -15 -19 -39 -8 -27 12 11 17 16 13 9 -6z m47 -92 c0 -11 -39
-10 -46 1 -4 7 -2 8 4 4 7 -4 12 -3 12 3 0 6 7 8 15 5 8 -4 15 -9 15 -13z"/>
<path d="M3657 1103 c-11 -10 -8 -20 7 -26 10 -4 14 0 13 14 -1 20 -9 24 -20
12z"/>
<path d="M3685 1050 c3 -5 8 -10 11 -10 2 0 4 5 4 10 0 6 -5 10 -11 10 -5 0
-7 -4 -4 -10z"/>
<path d="M2142 1166 c7 -8 15 -12 17 -11 5 6 -10 25 -20 25 -5 0 -4 -6 3 -14z"/>
<path d="M2060 1150 c0 -13 18 -22 24 -11 3 5 -1 11 -9 15 -8 3 -15 1 -15 -4z"/>
<path d="M1403 1135 c0 -8 4 -12 9 -9 5 3 6 10 3 15 -9 13 -12 11 -12 -6z"/>
<path d="M2116 1132 c5 -4 12 -11 15 -15 3 -5 9 -2 12 5 3 9 -3 14 -15 15 -11
1 -16 -1 -12 -5z"/>
<path d="M2048 1123 c6 -2 9 -10 6 -15 -4 -7 -2 -8 5 -4 13 9 5 26 -12 25 -9
0 -8 -2 1 -6z"/>
<path d="M2085 1120 c-3 -5 -1 -10 4 -10 6 0 11 5 11 10 0 6 -2 10 -4 10 -3 0
-8 -4 -11 -10z"/>
<path d="M1439 1118 c-5 -18 -6 -38 -1 -34 7 8 12 36 6 36 -2 0 -4 -1 -5 -2z"/>
<path d="M2025 1090 c-3 -5 -1 -10 4 -10 6 0 11 5 11 10 0 6 -2 10 -4 10 -3 0
-8 -4 -11 -10z"/>
<path d="M2055 1080 c3 -5 11 -10 16 -10 6 0 7 5 4 10 -3 6 -11 10 -16 10 -6
0 -7 -4 -4 -10z"/>
<path d="M1892 1043 c-12 -26 -11 -27 3 -8 9 11 18 19 20 18 3 -2 5 0 6 4 2
20 -19 10 -29 -14z"/>
<path d="M2028 1052 c-4 -12 -1 -25 4 -29 7 -4 8 -1 3 7 -6 9 -4 12 7 8 8 -4
15 0 15 8 0 7 -4 11 -8 8 -4 -2 -9 1 -11 8 -3 7 -7 2 -10 -10z"/>
<path d="M1985 1050 c-3 -5 -1 -10 4 -10 6 0 11 5 11 10 0 6 -2 10 -4 10 -3 0
-8 -4 -11 -10z"/>
<path d="M4005 1040 c-10 -11 -15 -23 -12 -27 4 -3 -3 -14 -15 -24 -11 -11
-16 -19 -11 -19 13 0 36 28 39 47 4 27 14 27 14 0 0 -29 15 -44 26 -26 4 7 3
9 -4 5 -7 -4 -10 4 -10 24 1 40 -5 44 -27 20z"/>
<path d="M3468 1043 c7 -3 16 -2 19 1 4 3 -2 6 -13 5 -11 0 -14 -3 -6 -6z"/>
<path d="M4070 1041 c0 -6 4 -13 10 -16 6 -3 7 1 4 9 -7 18 -14 21 -14 7z"/>
<path d="M1496 1023 c-6 -14 -5 -15 5 -6 7 7 10 15 7 18 -3 3 -9 -2 -12 -12z"/>
<path d="M1616 1032 c-2 -4 -1 -14 4 -22 7 -11 9 -9 7 8 -1 24 -3 26 -11 14z"/>
<path d="M1699 1028 c-11 -8 -10 -9 4 -4 11 3 17 0 17 -10 0 -8 5 -12 10 -9 6
3 10 10 10 15 0 13 -26 19 -41 8z"/>
<path d="M1640 1018 c0 -6 3 -8 6 -5 11 10 45 -13 38 -25 -5 -7 -2 -8 6 -3 10
6 8 12 -9 27 -27 21 -41 23 -41 6z"/>
<path d="M1898 1002 c-3 -11 0 -19 7 -19 7 0 10 8 7 19 -2 10 -6 18 -7 18 -1
0 -5 -8 -7 -18z"/>
<path d="M1821 994 c0 -11 3 -14 6 -6 3 7 2 16 -1 19 -3 4 -6 -2 -5 -13z"/>
<path d="M3620 1006 c0 -2 7 -7 16 -10 8 -3 12 -2 9 4 -6 10 -25 14 -25 6z"/>
<path d="M4068 1003 c7 -3 16 -2 19 1 4 3 -2 6 -13 5 -11 0 -14 -3 -6 -6z"/>
<path d="M1570 989 c0 -5 5 -7 10 -4 6 3 10 8 10 11 0 2 -4 4 -10 4 -5 0 -10
-5 -10 -11z"/>
<path d="M3470 990 c0 -5 7 -7 15 -4 8 4 15 8 15 10 0 2 -7 4 -15 4 -8 0 -15
-4 -15 -10z"/>
<path d="M3721 986 c-9 -10 -8 -15 4 -19 8 -4 12 -13 9 -22 -3 -8 -1 -15 5
-15 15 0 14 23 -1 39 -11 11 -9 12 10 6 27 -8 29 1 3 14 -14 8 -22 7 -30 -3z"/>
<path d="M1735 970 c4 -6 11 -8 16 -5 14 9 11 15 -7 15 -8 0 -12 -5 -9 -10z"/>
<path d="M1813 963 c4 -6 1 -14 -5 -17 -7 -2 -3 -4 9 -2 12 1 26 6 30 12 5 5
4 6 -1 2 -5 -4 -16 -2 -24 5 -11 8 -14 8 -9 0z"/>
<path d="M3630 960 c0 -5 5 -10 11 -10 5 0 7 5 4 10 -3 6 -8 10 -11 10 -2 0
-4 -4 -4 -10z"/>
<path d="M4037 955 c5 -14 0 -16 -23 -14 -16 2 -36 8 -44 14 -13 8 -13 7 -3
-6 7 -9 11 -18 9 -20 -2 -2 12 -4 33 -4 28 0 37 4 38 17 1 10 -2 20 -8 23 -5
3 -6 -1 -2 -10z"/>
<path d="M1665 950 c4 -6 11 -8 16 -5 14 9 11 15 -7 15 -8 0 -12 -5 -9 -10z"/>
<path d="M1773 945 c0 -8 4 -12 9 -9 4 3 8 9 8 15 0 5 -4 9 -8 9 -5 0 -9 -7
-9 -15z"/>
<path d="M2045 950 c-3 -6 1 -7 9 -4 18 7 21 14 7 14 -6 0 -13 -4 -16 -10z"/>
<path d="M3590 956 c0 -2 7 -7 16 -10 8 -3 12 -2 9 4 -6 10 -25 14 -25 6z"/>
<path d="M3706 945 c4 -8 8 -15 10 -15 2 0 4 7 4 15 0 8 -4 15 -10 15 -5 0 -7
-7 -4 -15z"/>
<path d="M3670 941 c0 -5 5 -13 10 -16 6 -3 10 -2 10 4 0 5 -4 13 -10 16 -5 3
-10 2 -10 -4z"/>
<path d="M4085 940 c-4 -6 -12 -7 -18 -4 -7 4 -9 4 -5 -1 4 -4 2 -15 -4 -24
-7 -9 -1 -6 13 7 14 12 29 19 34 15 4 -5 5 -2 1 5 -9 15 -13 15 -21 2z"/>
<path d="M21 2774 c0 -11 3 -14 6 -6 3 7 2 16 -1 19 -3 4 -6 -2 -5 -13z"/>
<path d="M5492 2733 c-1 -42 -6 -63 -14 -63 -9 0 -9 -3 -2 -8 8 -5 12 -97 4
-97 -8 0 -7 -42 2 -52 7 -9 7 -13 -2 -13 -7 0 -10 -7 -6 -15 6 -15 -5 -20 -18
-8 -3 4 -14 8 -22 9 -9 1 -13 -1 -9 -4 4 -4 10 -7 13 -8 4 0 18 -6 32 -12 21
-9 15 -17 -11 -14 -10 1 -3 -36 10 -52 9 -11 10 -16 2 -16 -6 0 -11 -7 -11
-15 0 -8 7 -15 15 -15 12 0 12 -3 -2 -18 -10 -11 -22 -17 -28 -15 -5 3 -2 -2
8 -10 18 -15 18 -16 -4 -19 -12 -2 -24 -9 -25 -16 -1 -7 0 -8 3 -2 6 14 43 13
43 -1 0 -6 -7 -9 -15 -5 -9 3 -15 0 -15 -9 0 -19 -23 -15 -31 4 -4 11 -7 9
-11 -6 -5 -17 -2 -21 14 -18 15 3 18 0 14 -12 -5 -13 -4 -14 8 -4 12 10 17 8
25 -8 7 -13 8 -22 1 -26 -6 -3 -10 4 -11 17 l0 23 -10 -23 c-5 -13 -7 -28 -4
-33 4 -5 -2 -6 -12 -3 -10 3 -2 -4 17 -16 27 -16 29 -19 10 -14 -14 4 -31 9
-37 11 -7 3 -13 0 -13 -7 0 -6 5 -8 10 -5 6 3 10 1 10 -4 0 -6 12 -11 28 -12
24 0 24 -1 7 -8 -11 -5 -25 -5 -31 0 -7 5 -19 -1 -32 -16 -19 -22 -20 -26 -6
-40 12 -11 12 -15 2 -15 -10 0 -9 -3 2 -10 13 -9 13 -10 0 -11 -8 0 -1 -7 15
-14 17 -8 24 -14 17 -15 -7 0 -11 -4 -7 -9 3 -5 -4 -12 -15 -16 -27 -9 -25
-39 3 -51 12 -6 17 -9 10 -8 -6 2 -14 -2 -17 -9 -3 -9 -5 -9 -5 1 -1 6 -5 12
-9 12 -11 0 -8 -92 3 -110 6 -10 4 -12 -9 -7 -13 5 -15 3 -7 -12 6 -10 8 -21
4 -24 -3 -4 -1 -12 5 -20 6 -7 7 -18 2 -26 -4 -8 -6 -21 -2 -29 3 -10 1 -13
-6 -8 -16 10 -15 -7 0 -22 10 -10 10 -15 -1 -22 -13 -7 -13 -11 0 -26 11 -14
11 -18 1 -22 -10 -3 -10 -7 -1 -19 9 -10 9 -17 2 -21 -6 -4 -10 -25 -10 -48 0
-22 -5 -63 -11 -90 -7 -27 -19 -83 -28 -124 -26 -117 -72 -249 -109 -315 -69
-121 -86 -156 -79 -167 4 -7 3 -8 -4 -4 -13 8 -16 5 -101 -108 -33 -44 -58
-83 -55 -87 3 -5 -1 -7 -8 -4 -7 3 -42 -22 -78 -55 -128 -120 -322 -233 -489
-285 -64 -20 -91 -33 -91 -44 0 -14 1 -14 10 -1 8 13 10 13 10 -1 0 -9 7 -20
16 -23 8 -3 12 -10 9 -16 -3 -5 1 -10 9 -10 9 0 13 6 10 14 -3 8 0 17 6 21 6
4 9 1 8 -7 -4 -20 29 -17 107 10 88 30 89 30 73 50 -11 13 -11 14 1 7 9 -5 19
-2 27 10 8 10 17 15 21 12 3 -4 -2 -14 -13 -22 -31 -24 0 -17 50 11 25 14 46
23 46 20 0 -14 -137 -79 -235 -110 -110 -36 -162 -45 -150 -26 3 6 1 10 -4 10
-6 0 -11 5 -11 11 0 6 9 8 23 3 20 -6 19 -4 -7 21 l-29 27 -81 -18 c-72 -15
-136 -17 -571 -16 -269 0 -509 -3 -532 -7 -23 -5 -40 -5 -37 0 2 4 -201 8
-451 9 -332 0 -454 -3 -449 -11 4 -8 -1 -9 -17 -3 -13 5 -179 9 -369 9 -362 1
-448 8 -640 54 -106 26 -139 37 -217 79 -35 18 -63 29 -63 25 0 -5 -4 -3 -8 2
-7 11 -96 65 -106 65 -4 0 -1 -9 6 -20 9 -14 15 -16 21 -7 9 13 5 -15 -8 -45
-5 -12 1 -18 26 -23 19 -4 42 -13 51 -19 12 -7 21 -8 26 -1 9 13 35 18 27 5
-5 -9 22 -15 48 -11 4 0 7 -3 7 -9 0 -5 6 -7 14 -4 8 3 17 1 21 -5 3 -7 0 -8
-9 -5 -10 4 -16 1 -16 -7 0 -9 -3 -10 -8 -4 -6 9 -22 14 -59 17 -7 1 -10 4 -8
8 2 3 -13 6 -33 6 l-36 0 39 -17 c22 -10 43 -15 47 -13 4 3 8 0 8 -5 0 -6 8
-11 18 -11 10 0 22 -3 26 -7 4 -4 18 -9 31 -10 13 -2 41 -11 62 -20 21 -9 42
-16 46 -15 5 2 5 -3 1 -9 -4 -8 0 -9 16 -4 15 5 20 4 16 -4 -4 -6 -3 -11 3
-11 5 0 11 3 14 8 2 4 2 1 1 -5 -2 -7 3 -13 10 -13 8 0 17 6 19 13 4 9 6 9 6
0 2 -25 -21 -23 -121 8 -251 77 -456 227 -661 484 -97 122 -130 172 -121 187
4 7 3 8 -4 4 -11 -7 -143 245 -141 268 0 6 9 -6 18 -27 10 -20 21 -34 26 -30
4 5 5 3 1 -4 -5 -10 28 -93 37 -93 2 0 3 9 3 19 0 11 -4 17 -8 15 -4 -3 -8 -1
-8 5 0 5 3 11 8 14 4 2 2 2 -5 1 -6 -2 -12 5 -12 14 -3 47 -6 60 -15 55 -5 -4
-7 1 -3 10 3 10 2 17 -4 17 -6 0 -8 4 -5 9 4 5 17 8 31 6 25 -2 33 9 15 20 -6
4 -8 11 -5 16 9 13 -4 31 -17 23 -6 -4 -5 -10 3 -15 11 -7 10 -9 -3 -9 -23 0
-23 26 -1 38 14 9 14 10 -4 16 -12 4 -24 14 -28 23 -5 14 -3 14 15 -2 18 -16
20 -16 20 -2 0 10 -4 17 -8 17 -5 0 -7 13 -4 29 3 23 -1 30 -17 36 -12 3 -19
11 -15 16 3 5 9 7 14 4 5 -3 8 3 7 14 0 11 -4 18 -8 15 -4 -2 -6 10 -4 28 3
40 -5 69 -16 62 -5 -3 -9 0 -9 6 0 7 -7 9 -16 6 -8 -3 -12 -2 -9 4 3 6 15 10
26 10 12 0 19 7 19 20 0 14 -7 20 -24 20 -17 0 -25 7 -28 25 -3 13 -1 22 3 19
5 -3 6 2 3 10 -7 19 13 56 31 56 9 0 15 10 15 25 0 25 -14 33 -25 15 -3 -5 -1
-10 4 -10 18 0 12 -14 -15 -34 l-26 -19 7 24 c4 16 3 20 -3 10 -6 -8 -12 -9
-16 -3 -3 6 -2 14 4 17 8 5 8 11 0 20 -7 8 -7 15 -1 19 5 3 12 0 15 -6 2 -7 4
-3 2 10 -1 12 -8 28 -16 35 -10 10 -12 8 -6 -8 6 -16 5 -18 -5 -7 -10 9 -10
15 -2 23 9 9 16 8 28 -5 20 -20 26 -20 19 -1 -4 8 -11 15 -16 15 -6 0 -5 6 2
15 14 16 40 20 40 6 0 -5 -5 -11 -12 -13 -7 -3 -6 -7 5 -11 15 -5 17 1 17 43
0 29 -5 50 -11 50 -5 0 -8 -4 -5 -9 3 -5 -2 -12 -12 -16 -16 -7 -15 -8 3 -15
17 -7 17 -9 3 -9 -32 -2 -33 -1 -34 9 -1 6 -2 15 -3 20 0 6 -6 10 -12 10 -8 0
-8 -5 1 -15 10 -12 9 -15 -5 -15 -17 0 -17 -1 1 -22 16 -18 17 -21 2 -15 -9 3
-18 1 -21 -6 -2 -6 -6 -3 -10 7 -5 11 -3 15 5 10 8 -5 9 -2 5 9 -3 9 -2 19 3
22 6 4 4 20 -5 41 -12 30 -12 34 1 34 11 0 12 4 4 19 -16 31 -12 35 9 10 18
-22 18 -26 4 -41 -9 -10 -11 -18 -6 -18 15 0 36 28 29 39 -3 5 -3 11 1 14 5 2
3 2 -4 1 -15 -4 -25 24 -11 32 7 4 8 3 4 -4 -4 -7 -2 -12 4 -12 7 0 9 7 6 15
-7 20 20 31 38 16 10 -9 15 -8 20 4 3 9 1 15 -7 14 -38 -5 -48 1 -37 21 6 11
7 20 3 19 -26 -4 -35 1 -24 15 8 10 8 16 -3 25 -11 9 -13 6 -13 -15 0 -14 5
-28 12 -30 13 -5 8 -54 -5 -54 -5 0 -17 -3 -27 -6 -15 -5 -15 -4 -3 5 9 7 10
11 3 11 -14 0 -13 40 2 40 5 0 3 5 -5 11 -11 8 -12 12 -2 16 15 6 16 33 0 33
-6 0 -9 3 -5 6 3 3 2 17 -3 30 -6 16 -6 24 1 24 6 0 17 7 25 15 16 15 9 20
-23 16 -7 -1 -10 9 -8 28 2 17 0 33 -6 36 -5 4 -9 -11 -9 -34 0 -29 5 -41 18
-44 15 -4 15 -5 -2 -6 -18 -1 -18 -16 -13 -403 6 -528 22 -616 156 -888 184
-373 505 -644 905 -764 245 -74 154 -70 1601 -74 910 -2 1333 0 1410 8 385 39
686 180 951 444 135 135 226 263 298 417 140 302 159 468 154 1389 -2 294 -4
507 -6 473z m-65 -650 c-17 -4 -17 -5 -1 -17 12 -9 14 -15 5 -20 -6 -4 -14 0
-17 8 -3 9 -10 13 -15 10 -5 -3 -6 2 -3 10 3 9 16 15 28 15 18 -1 18 -2 3 -6z
m3 -63 c0 -5 -5 -10 -11 -10 -5 0 -7 5 -4 10 3 6 8 10 11 10 2 0 4 -4 4 -10z
m-5367 -365 c-3 -9 -8 -14 -10 -11 -3 3 -2 9 2 15 9 16 15 13 8 -4z m13 -50
c-3 -8 0 -15 7 -18 7 -2 5 -5 -4 -9 -11 -4 -15 1 -14 22 0 16 4 26 8 23 5 -3
6 -11 3 -18z m64 -100 c0 -7 -30 -13 -34 -7 -3 4 4 9 15 9 10 1 19 0 19 -2z
m-55 -55 c-3 -5 -1 -10 6 -10 7 0 10 -3 6 -6 -9 -9 -28 6 -22 17 4 5 8 9 11 9
3 0 2 -4 -1 -10z m48 -7 c3 -5 -1 -14 -9 -21 -12 -11 -14 -9 -14 8 0 20 14 27
23 13z m-18 -133 c-3 -5 -12 -10 -18 -10 -7 0 -6 4 3 10 19 12 23 12 15 0z
m55 -14 c0 -2 -9 -6 -20 -9 -11 -3 -18 -1 -14 4 5 9 34 13 34 5z m-30 -60 c0
-2 -7 -7 -16 -10 -8 -3 -12 -2 -9 4 6 10 25 14 25 6z m60 -90 c0 -3 -4 -8 -10
-11 -5 -3 -10 -1 -10 4 0 6 5 11 10 11 6 0 10 -2 10 -4z m5054 -203 c-5 -5
-12 -12 -16 -18 -4 -6 -8 -2 -8 8 0 9 7 17 17 17 9 0 12 -3 7 -7z m-54 -76 c0
-8 -7 -14 -15 -14 -11 0 -12 4 -4 14 6 7 13 13 15 13 2 0 4 -6 4 -13z m1 -110
c-10 -9 -11 -8 -5 6 3 10 9 15 12 12 3 -3 0 -11 -7 -18z m-39 -52 c-36 -46
-81 -95 -87 -95 -4 0 17 27 46 60 52 60 78 82 41 35z m-82 -35 c0 -5 -4 -10
-9 -10 -6 0 -13 5 -16 10 -3 6 1 10 9 10 9 0 16 -4 16 -10z m-31 -97 c-40 -47
-42 -49 -34 -33 10 19 47 60 53 60 3 0 -5 -12 -19 -27z m-190 -132 c9 -6 10
-11 2 -15 -6 -4 -15 -4 -21 -1 -6 3 -7 -1 -4 -9 5 -13 10 -13 27 -5 21 11 21
11 4 -7 -18 -19 -19 -18 -38 5 -10 13 -19 27 -19 32 0 11 31 11 49 0z m51 -5
c0 -3 -4 -8 -10 -11 -5 -3 -10 -1 -10 4 0 6 5 11 10 11 6 0 10 -2 10 -4z m-87
-50 c3 -8 -18 -29 -55 -56 -34 -23 -58 -38 -54 -32 3 6 2 13 -4 17 -15 9 -12
22 4 22 9 0 12 -6 8 -16 -4 -10 4 -8 26 8 18 12 32 27 32 32 0 6 -4 8 -8 5 -5
-3 -9 1 -9 9 0 10 5 11 18 4 24 -12 29 -11 29 6 0 19 6 19 13 1z m-4028 -25
c-3 -5 3 -12 12 -14 14 -4 13 -5 -4 -6 -23 -1 -30 9 -16 22 9 10 15 8 8 -2z
m59 -47 c3 -8 2 -12 -4 -9 -6 3 -10 10 -10 16 0 14 7 11 14 -7z m3524 -96 c-6
-18 -28 -21 -28 -4 0 9 7 16 16 16 9 0 14 -5 12 -12z m47 -18 c3 -5 1 -10 -4
-10 -6 0 -11 5 -11 10 0 6 2 10 4 10 3 0 8 -4 11 -10z m-135 -10 c0 -5 -2 -10
-4 -10 -3 0 -8 5 -11 10 -3 6 -1 10 4 10 6 0 11 -4 11 -10z m0 -41 c0 -6 -4
-7 -10 -4 -5 3 -10 11 -10 16 0 6 5 7 10 4 6 -3 10 -11 10 -16z m-1114 -12 c6
2 14 -4 18 -13 6 -15 4 -15 -10 -3 -10 8 -19 13 -21 12 -9 -7 -43 -2 -43 7 0
6 9 6 23 1 12 -4 27 -6 33 -4z m70 -9 c19 -23 19 -23 -2 -5 -11 9 -24 14 -29
10 -4 -5 -5 -2 -1 5 9 16 10 16 32 -10z m59 12 c3 -6 -1 -7 -9 -4 -18 7 -21
14 -7 14 6 0 13 -4 16 -10z m175 0 c0 -5 -2 -10 -4 -10 -3 0 -8 5 -11 10 -3 6
-1 10 4 10 6 0 11 -4 11 -10z m-1097 -7 c-7 -2 -19 -2 -25 0 -7 3 -2 5 12 5
14 0 19 -2 13 -5z m37 -8 c-7 -8 -17 -15 -23 -15 -6 0 -2 7 9 15 25 19 30 19
14 0z m1840 6 c0 -10 -100 -31 -150 -31 -26 0 -37 4 -37 15 0 11 4 12 14 4 10
-9 13 -8 13 1 0 9 3 10 13 1 13 -10 122 1 135 14 8 7 12 6 12 -4z m-810 -7 c0
-8 -19 -13 -24 -6 -3 5 1 9 9 9 8 0 15 -2 15 -3z m412 -16 c-7 -7 -12 -8 -12
-2 0 14 12 26 19 19 2 -3 -1 -11 -7 -17z m-1533 -1 c8 -10 7 -14 -4 -14 -8 0
-12 4 -9 8 2 4 -2 10 -8 12 -8 4 -9 6 -2 6 6 1 17 -5 23 -12z m784 6 c-7 -2
-19 -2 -25 0 -7 3 -2 5 12 5 14 0 19 -2 13 -5z m915 -5 c-3 -7 -14 -14 -26
-14 -20 -2 -20 -1 -2 3 11 2 18 9 15 14 -4 5 -1 9 5 9 7 0 10 -6 8 -12z m-68
-14 c0 -2 -9 -4 -20 -4 -11 0 -20 4 -20 9 0 5 9 7 20 4 11 -3 20 -7 20 -9z
m-1195 -8 c11 -2 -27 -3 -85 -3 -62 0 -89 2 -65 6 37 6 104 4 150 -3z m385 10
c0 -3 -4 -8 -10 -11 -5 -3 -10 -1 -10 4 0 6 5 11 10 11 6 0 10 -2 10 -4z
m-282 -13 c-16 -2 -40 -2 -55 0 -16 2 -3 4 27 4 30 0 43 -2 28 -4z m200 0
c-32 -2 -84 -2 -115 0 -32 2 -6 3 57 3 63 0 89 -1 58 -3z"/>
<path d="M21 2724 c0 -11 3 -14 6 -6 3 7 2 16 -1 19 -3 4 -6 -2 -5 -13z"/>
<path d="M21 2654 c0 -11 3 -14 6 -6 3 7 2 16 -1 19 -3 4 -6 -2 -5 -13z"/>
<path d="M5435 2550 c-19 -8 -19 -9 3 -9 12 -1 22 4 22 9 0 6 -1 10 -2 9 -2 0
-12 -4 -23 -9z"/>
<path d="M5435 2520 c-19 -7 -19 -7 3 -14 26 -9 41 -1 26 13 -5 5 -18 5 -29 1z"/>
<path d="M5410 2435 c-19 -22 -8 -25 13 -3 9 10 13 18 8 18 -5 0 -14 -7 -21
-15z"/>
<path d="M5420 2372 c0 -6 -8 -9 -17 -6 -15 5 -16 4 -3 -5 16 -11 40 3 27 16
-4 3 -7 1 -7 -5z"/>
<path d="M5426 2342 c-2 -4 4 -8 14 -8 10 0 16 4 14 8 -3 4 -9 8 -14 8 -5 0
-11 -4 -14 -8z"/>
<path d="M20 2318 c0 -9 5 -20 10 -23 13 -8 13 5 0 25 -8 13 -10 13 -10 -2z"/>
<path d="M5400 2305 c-7 -9 -10 -18 -6 -22 3 -3 6 -1 6 5 0 6 8 12 18 14 11 2
13 6 6 11 -7 4 -17 0 -24 -8z"/>
<path d="M32 2255 c0 -16 2 -22 5 -12 2 9 2 23 0 30 -3 6 -5 -1 -5 -18z"/>
<path d="M140 2230 c0 -5 5 -10 11 -10 5 0 7 5 4 10 -3 6 -8 10 -11 10 -2 0
-4 -4 -4 -10z"/>
<path d="M5400 2205 c0 -8 4 -15 10 -15 5 0 7 7 4 15 -4 8 -8 15 -10 15 -2 0
-4 -7 -4 -15z"/>
<path d="M85 2191 c-3 -5 -2 -12 3 -15 5 -3 9 1 9 9 0 17 -3 19 -12 6z"/>
<path d="M82 2133 c-10 -4 -9 -8 5 -19 11 -8 13 -13 6 -14 -7 0 -13 -5 -13
-11 0 -5 5 -7 12 -3 8 5 9 2 5 -10 -4 -10 -3 -15 3 -11 8 5 8 34 0 55 -2 3 -2
8 -1 13 0 4 0 7 -1 6 -2 0 -9 -3 -16 -6z"/>
<path d="M141 2074 c0 -11 3 -14 6 -6 3 7 2 16 -1 19 -3 4 -6 -2 -5 -13z"/>
<path d="M140 2036 c0 -9 5 -16 10 -16 6 0 10 4 10 9 0 6 -4 13 -10 16 -5 3
-10 -1 -10 -9z"/>
<path d="M125 1990 c-3 -5 1 -10 9 -10 9 0 16 5 16 10 0 6 -4 10 -9 10 -6 0
-13 -4 -16 -10z"/>
<path d="M5380 1985 c-10 -12 -10 -15 4 -15 9 0 16 7 16 15 0 8 -2 15 -4 15
-2 0 -9 -7 -16 -15z"/>
<path d="M55 1980 c-3 -5 1 -10 9 -10 9 0 16 5 16 10 0 6 -4 10 -9 10 -6 0
-13 -4 -16 -10z"/>
<path d="M140 1919 c0 -5 -4 -7 -10 -4 -5 3 -10 1 -10 -4 0 -6 7 -11 15 -11 8
0 15 7 15 15 0 8 -2 15 -5 15 -3 0 -5 -5 -5 -11z"/>
<path d="M102 1869 c-8 -12 -9 -26 -4 -36 7 -12 11 -13 17 -3 4 7 2 16 -6 21
-10 6 -5 9 16 10 17 0 23 3 15 6 -8 3 -17 10 -20 14 -3 5 -11 -1 -18 -12z"/>
<path d="M128 1603 c7 -3 16 -2 19 1 4 3 -2 6 -13 5 -11 0 -14 -3 -6 -6z"/>
<path d="M126 1559 c-11 -11 -15 -19 -10 -19 16 0 37 17 33 27 -2 6 -13 2 -23
-8z"/>
<path d="M280 976 c0 -12 29 -76 34 -76 3 0 -2 17 -11 38 -16 38 -23 50 -23
38z"/>
<path d="M356 770 c7 -8 14 -24 17 -35 4 -19 5 -19 6 1 0 12 -7 28 -16 35 -16
12 -17 12 -7 -1z"/>
<path d="M520 612 c0 -12 19 -26 26 -19 2 2 -2 10 -11 17 -9 8 -15 8 -15 2z"/>
<path d="M565 550 c3 -5 8 -10 11 -10 2 0 4 5 4 10 0 6 -5 10 -11 10 -5 0 -7
-4 -4 -10z"/>
<path d="M590 531 c0 -5 5 -13 10 -16 6 -3 10 -2 10 4 0 5 -4 13 -10 16 -5 3
-10 2 -10 -4z"/>
<path d="M620 500 c0 -5 5 -10 11 -10 5 0 7 5 4 10 -3 6 -8 10 -11 10 -2 0 -4
-4 -4 -10z"/>
<path d="M656 467 c3 -10 9 -15 12 -12 3 3 0 11 -7 18 -10 9 -11 8 -5 -6z"/>
<path d="M693 448 c3 -9 1 -20 -3 -24 -5 -5 -5 -15 0 -24 8 -12 10 -10 10 9 0
21 2 22 17 10 15 -13 15 -12 5 8 -15 27 -38 44 -29 21z"/>
<path d="M725 370 c3 -5 11 -10 16 -10 6 0 7 5 4 10 -3 6 -11 10 -16 10 -6 0
-7 -4 -4 -10z"/>
</g>
</svg>
