<?xml version="1.0" standalone="no"?>
<!DOCTYPE svg PUBLIC "-//W3C//DTD SVG 20010904//EN"
 "http://www.w3.org/TR/2001/REC-SVG-20010904/DTD/svg10.dtd">
<svg version="1.0" xmlns="http://www.w3.org/2000/svg"
 width="48.000000pt" height="48.000000pt" viewBox="0 0 48.000000 48.000000"
 preserveAspectRatio="xMidYMid meet">

<g transform="translate(0.000000,48.000000) scale(0.100000,-0.100000)"
fill="#000000" stroke="none">
<path d="M103 463 c-33 -7 -79 -57 -87 -94 -3 -17 -6 -89 -6 -159 0 -114 2
-130 21 -154 38 -48 67 -56 212 -56 123 0 137 2 168 23 61 40 71 74 63 217
-10 208 -26 224 -219 227 -72 0 -140 -1 -152 -4z m87 -68 c0 -28 -4 -35 -20
-35 -16 0 -20 7 -20 35 0 28 4 35 20 35 16 0 20 -7 20 -35z m180 -15 c0 -6
-35 -10 -85 -10 -50 0 -85 4 -85 10 0 6 35 10 85 10 50 0 85 -4 85 -10z m-193
-46 c-3 -3 -12 -4 -19 -1 -8 3 -5 6 6 6 11 1 17 -2 13 -5z m-49 -51 c4 -38 -5
-41 -42 -12 -37 29 -34 51 7 47 28 -3 32 -7 35 -35z m200 -9 c2 -27 -2 -45
-13 -54 -26 -21 -18 -57 20 -87 34 -27 46 -53 25 -53 -5 0 -10 5 -10 10 0 14
-27 12 -34 -2 -5 -10 -7 -10 -12 0 -22 48 -81 57 -112 17 -14 -17 -30 -25 -51
-25 -40 0 -41 24 -3 44 39 20 57 57 43 85 -7 11 -16 21 -21 21 -6 0 -10 18
-10 39 0 47 6 50 105 48 l70 -2 3 -41z m92 32 c0 -7 -16 -26 -35 -40 l-35 -27
0 40 c0 40 1 41 35 41 23 0 35 -5 35 -14z"/>
<path d="M235 240 c-3 -5 -1 -10 4 -10 6 0 11 5 11 10 0 6 -2 10 -4 10 -3 0
-8 -4 -11 -10z"/>
<path d="M235 180 c3 -5 8 -10 11 -10 2 0 4 5 4 10 0 6 -5 10 -11 10 -5 0 -7
-4 -4 -10z"/>
</g>
</svg>
